<svg xmlns="http://www.w3.org/2000/svg" width="26.712" height="18.315" viewBox="0 0 26.712 18.315">
  <path id="rightarrow" data-name="Union 7" d="M-424.7-15654.788a.27.27,0,0,1,.043-.385l9.86-7.9h-23.925a.273.273,0,0,1-.275-.271.274.274,0,0,1,.275-.275h23.92l-9.855-7.894a.272.272,0,0,1-.043-.386.275.275,0,0,1,.385-.043l10.434,8.361a.262.262,0,0,1,.06.048l.236.188-.258.207-.006.006-10.465,8.386a.289.289,0,0,1-.173.059A.269.269,0,0,1-424.7-15654.788Z" transform="translate(439.5 15672.501)" fill="#0097f0" stroke="rgba(0,0,0,0)" stroke-miterlimit="10" stroke-width="1"/>
</svg>
