<svg xmlns="http://www.w3.org/2000/svg" width="63.328" height="40.362" viewBox="0 0 63.328 40.362">
  <path id="Union_3" data-name="Union 3" d="M-438.6-15650.588a2.089,2.089,0,0,1,0-2.462c.566-.775,14.045-18.95,31.261-18.95s30.7,18.175,31.265,18.95a2.089,2.089,0,0,1,0,2.462c-.566.774-14.045,18.95-31.265,18.95S-438.031-15649.813-438.6-15650.588Zm4.346-1.231c3.249,3.941,14.234,16.009,26.915,16.009,12.708,0,23.67-12.06,26.918-16.009-3.253-3.944-14.238-16-26.918-16C-420.045-15667.823-431.007-15655.768-434.252-15651.819Zm14.387,0a12.542,12.542,0,0,1,12.527-12.526,12.542,12.542,0,0,1,12.527,12.526,12.542,12.542,0,0,1-12.527,12.527A12.542,12.542,0,0,1-419.864-15651.819Zm4.177,0a8.358,8.358,0,0,0,8.35,8.351,8.358,8.358,0,0,0,8.35-8.351,8.357,8.357,0,0,0-8.35-8.35A8.357,8.357,0,0,0-415.687-15651.819Z" transform="translate(438.999 15672)" fill="#1784c1"/>
</svg>
