<svg xmlns="http://www.w3.org/2000/svg" width="66.773" height="60.728" viewBox="0 0 66.773 60.728">
  <path id="Union_1" data-name="Union 1" d="M-391.211-15611.272v-14.564h8.126v-12.936H-404.25v12.936h8.13v14.564h-18.985v-14.564h8.126v-12.936h-21.164v12.936h8.13v14.564H-439v-14.564h8.126v-15.665h23.894v-8.649h-15.768V-15672h34.266v21.849H-404.25v8.649h23.894v15.665h8.13v14.564Zm2.73-2.733h13.522v-9.1h-13.522Zm-23.894,0h13.522v-9.1h-13.522Zm-23.894,0h13.522v-9.1h-13.522Zm16.256-38.875h28.8v-16.39h-28.8Zm4.043-3.957v-2.729h20.712v2.729Zm0-5.742v-2.733h20.712v2.733Z" transform="translate(438.999 15672)" fill="#1784c1"/>
</svg>
