<svg xmlns="http://www.w3.org/2000/svg" width="43.814" height="50.447" viewBox="0 0 43.814 50.447">
  <path id="Path_2410" data-name="Path 2410" d="M76.962,5.787a.88.88,0,0,0-1.52-.247l-4.087,5.184a.2.2,0,0,1-.2.072l-3.316-.776a.2.2,0,0,1-.134-.106L66.172,6.872a.2.2,0,0,1,.022-.216l4.087-5.184a.88.88,0,0,0-.595-1.42,8.733,8.733,0,0,0-9.167,11.622.849.849,0,0,1-.133.815l-4.809,6.1a1.762,1.762,0,0,0-1.09.356l-.43.324-.847-1.125.433-.326a1.773,1.773,0,0,0,.35-2.483L44.3,2.454a5.911,5.911,0,1,0-9.445,7.109l.842,1.119A.735.735,0,0,0,36.871,9.8l-.842-1.119a4.441,4.441,0,1,1,7.1-5.341l9.694,12.88a.3.3,0,0,1-.06.424l-3.306,2.488-2.286,1.72h0l-1.02.768a.3.3,0,0,1-.424-.06l-6.814-9.053a.735.735,0,0,0-1.175.884l6.814,9.053a1.761,1.761,0,0,0,1.169.69,1.807,1.807,0,0,0,.252.018,1.76,1.76,0,0,0,1.063-.357l.433-.326.847,1.125-.43.324a1.777,1.777,0,0,0-.351,2.488l.811,1.078a1.79,1.79,0,0,0,.115.138L42.884,34.69a.836.836,0,0,1-.676.325,7.718,7.718,0,1,0-.282,15.432,7.851,7.851,0,0,0,.868-.048A7.663,7.663,0,0,0,48,47.507a7.752,7.752,0,0,0,1.381-6.82.853.853,0,0,1,.153-.75l.563-.714a.735.735,0,1,0-1.155-.91l-.563.714a2.329,2.329,0,0,0-.417,2.049A6.276,6.276,0,0,1,46.849,46.6,6.248,6.248,0,0,1,38,47.577a6.247,6.247,0,0,1,4.156-11.092,2.307,2.307,0,0,0,1.88-.884l5.844-7.413a1.764,1.764,0,0,0,.947-.353l1.219-.917,2.872,3.816-3.866,4.9a.735.735,0,1,0,1.155.91l3.625-4.6,8.648,11.489,1.889,4.037a1.538,1.538,0,0,0,.639.69l3.345,1.892a1.546,1.546,0,0,0,1.692-.11l.765-.576a1.547,1.547,0,0,0,.574-1.6l-.893-3.738a1.539,1.539,0,0,0-.487-.806L68.651,40.3,59.175,27.71l7.865-9.976a.849.849,0,0,1,.761-.32A8.733,8.733,0,0,0,76.962,5.787ZM52.035,19.027l.847,1.125-1.423,1.071-1.973,1.485-.847-1.125Zm-2.09,7.632a.307.307,0,0,1-.429-.06L48.7,25.521a.306.306,0,0,1,.061-.429l1.017-.766h0l1.087-.818,4.5-3.389a.3.3,0,0,1,.184-.062.322.322,0,0,1,.043,0,.305.305,0,0,1,.2.119l.812,1.078a.307.307,0,0,1-.061.429ZM71.04,44.34a.076.076,0,0,1,.024.04l.893,3.738a.077.077,0,0,1-.029.079l-.765.576a.076.076,0,0,1-.084.005l-3.345-1.892a.077.077,0,0,1-.032-.034l-1.669-3.566,2.041-1.536Zm-3.96-3.682-1.819,1.369L53.223,26.033l1.819-1.369Zm7.363-27.429a7.227,7.227,0,0,1-6.486,2.724,2.309,2.309,0,0,0-2.072.872L58.261,26.5l-2.044-2.716,1.219-.917a1.777,1.777,0,0,0,.351-2.488L56.975,19.3c-.013-.018-.029-.034-.043-.052L61.54,13.4A2.311,2.311,0,0,0,61.9,11.18a7.264,7.264,0,0,1,6.5-9.7L65.039,5.746a1.679,1.679,0,0,0-.181,1.785l1.528,3.043a1.668,1.668,0,0,0,1.113.878l3.316.776a1.679,1.679,0,0,0,1.694-.593l3.365-4.268a7.218,7.218,0,0,1-1.431,5.862Z" transform="translate(-33.664 0)" fill="#213348"/>
</svg>
