<svg xmlns="http://www.w3.org/2000/svg" width="75.249" height="71.501" viewBox="0 0 75.249 71.501">
  <path id="Union_5" data-name="Union 5" d="M-382.609-15601.62v-3.028a1.117,1.117,0,0,1,1.117-1.117,1.12,1.12,0,0,1,1.121,1.117v3.028a1.123,1.123,0,0,1-1.121,1.121A1.12,1.12,0,0,1-382.609-15601.62Zm3.681-4.472a1.12,1.12,0,0,1-1.117-1.121,1.117,1.117,0,0,1,1.117-1.117h3.029a1.12,1.12,0,0,1,1.121,1.117,1.123,1.123,0,0,1-1.121,1.121Zm-8.153,0a1.123,1.123,0,0,1-1.121-1.121,1.12,1.12,0,0,1,1.121-1.117h3.029a1.117,1.117,0,0,1,1.117,1.117,1.12,1.12,0,0,1-1.117,1.121Zm-18.859-2.592-.189-.929a4.793,4.793,0,0,0-3.756-3.756l-.924-.189a2.239,2.239,0,0,1-1.813-2.218,2.241,2.241,0,0,1,1.813-2.219l.924-.188a4.784,4.784,0,0,0,3.756-3.756l.189-.925a2.24,2.24,0,0,1,2.218-1.812,2.24,2.24,0,0,1,2.218,1.813l.189.925a4.794,4.794,0,0,0,3.756,3.756l.924.188a2.244,2.244,0,0,1,1.817,2.219,2.243,2.243,0,0,1-1.817,2.218l-.924.189a4.8,4.8,0,0,0-3.756,3.756l-.189.929a2.244,2.244,0,0,1-2.218,1.813A2.244,2.244,0,0,1-405.941-15608.684Zm2.2-13.755a.168.168,0,0,0,0,.02l-.189.925a7.032,7.032,0,0,1-5.506,5.506l-.924.189a.171.171,0,0,0-.02,0,.066.066,0,0,0,0,.039.03.03,0,0,0,.02,0l.924.188a7.037,7.037,0,0,1,5.506,5.507l.189.924a.194.194,0,0,0,0,.021.067.067,0,0,0,.039,0s0-.013.008-.021l.185-.924a7.042,7.042,0,0,1,5.506-5.507l.924-.188c.012,0,.016,0,.02,0a.067.067,0,0,0,0-.039.081.081,0,0,0-.02,0l-.924-.189a7.037,7.037,0,0,1-5.506-5.506l-.185-.925c0-.008,0-.016-.008-.02a.043.043,0,0,0-.02,0A.03.03,0,0,0-403.742-15622.438Zm21.133,12.665v-3.028a1.123,1.123,0,0,1,1.121-1.121,1.119,1.119,0,0,1,1.117,1.121v3.028a1.117,1.117,0,0,1-1.117,1.117A1.12,1.12,0,0,1-382.609-15609.773Zm-50.8-5.943v-3.028a1.12,1.12,0,0,1,1.121-1.117,1.117,1.117,0,0,1,1.117,1.117v3.028a1.119,1.119,0,0,1-1.117,1.121A1.123,1.123,0,0,1-433.41-15615.717Zm3.681-4.472a1.117,1.117,0,0,1-1.117-1.121,1.119,1.119,0,0,1,1.117-1.117h3.032a1.119,1.119,0,0,1,1.117,1.117,1.117,1.117,0,0,1-1.117,1.121Zm-8.153,0a1.117,1.117,0,0,1-1.117-1.121,1.119,1.119,0,0,1,1.117-1.117h3.029a1.122,1.122,0,0,1,1.121,1.117,1.121,1.121,0,0,1-1.121,1.121Zm57.007-4.665-.692-3.4a7.384,7.384,0,0,0-5.782-5.785l-3.406-.692a2.6,2.6,0,0,1-2.1-2.572,2.6,2.6,0,0,1,2.1-2.568l3.406-.692a7.38,7.38,0,0,0,5.782-5.781l.692-3.406a2.6,2.6,0,0,1,2.572-2.1,2.6,2.6,0,0,1,2.568,2.1l.692,3.406a7.384,7.384,0,0,0,5.786,5.781l3.4.692a2.6,2.6,0,0,1,2.1,2.568,2.6,2.6,0,0,1-2.1,2.572l-3.406.692a7.389,7.389,0,0,0-5.786,5.785l-.692,3.4a2.6,2.6,0,0,1-2.568,2.1A2.6,2.6,0,0,1-380.875-15624.854Zm2.191-24.456-.688,3.406a9.624,9.624,0,0,1-7.532,7.532l-3.406.688a.354.354,0,0,0-.311.378.354.354,0,0,0,.311.382l3.406.688a9.623,9.623,0,0,1,7.532,7.531l.688,3.406a.35.35,0,0,0,.382.311.349.349,0,0,0,.378-.311l.688-3.406a9.622,9.622,0,0,1,7.536-7.531l3.4-.688a.351.351,0,0,0,.311-.382.351.351,0,0,0-.311-.378l-3.4-.687a9.628,9.628,0,0,1-7.536-7.532l-.688-3.406a.35.35,0,0,0-.378-.311A.354.354,0,0,0-378.684-15649.31Zm-54.726,25.439v-3.028a1.123,1.123,0,0,1,1.121-1.121,1.12,1.12,0,0,1,1.117,1.121v3.028a1.116,1.116,0,0,1-1.117,1.117A1.119,1.119,0,0,1-433.41-15623.87Zm17.892-13.372-.9-4.434a9.958,9.958,0,0,0-7.8-7.795l-4.433-.9a3.014,3.014,0,0,1-2.466-3.018,3.016,3.016,0,0,1,2.466-3.017l4.433-.9a9.959,9.959,0,0,0,7.8-7.8l.9-4.433A3.015,3.015,0,0,1-412.5-15672a3.012,3.012,0,0,1,3.017,2.466l.9,4.433a9.959,9.959,0,0,0,7.8,7.8l4.433.9a3.015,3.015,0,0,1,2.47,3.017,3.013,3.013,0,0,1-2.47,3.018l-4.433.9a9.959,9.959,0,0,0-7.8,7.795l-.9,4.434a3.012,3.012,0,0,1-3.017,2.47A3.015,3.015,0,0,1-415.518-15637.242Zm2.195-31.848-.9,4.438a12.186,12.186,0,0,1-9.546,9.541l-4.433.9a.8.8,0,0,0-.673.821.8.8,0,0,0,.673.826l4.433.9a12.191,12.191,0,0,1,9.546,9.545l.9,4.437a.8.8,0,0,0,.822.673.8.8,0,0,0,.826-.673l.9-4.437a12.2,12.2,0,0,1,9.546-9.545l4.433-.9a.807.807,0,0,0,.676-.826.8.8,0,0,0-.676-.821l-4.433-.9a12.192,12.192,0,0,1-9.546-9.541l-.9-4.437a.8.8,0,0,0-.826-.672A.8.8,0,0,0-413.323-15669.09Zm30.86,9.645v-3.028a1.119,1.119,0,0,1,1.117-1.121,1.12,1.12,0,0,1,1.121,1.121v3.028a1.12,1.12,0,0,1-1.121,1.117A1.117,1.117,0,0,1-382.464-15659.445Zm3.681-4.476a1.117,1.117,0,0,1-1.117-1.117,1.12,1.12,0,0,1,1.117-1.121h3.029a1.123,1.123,0,0,1,1.121,1.121,1.12,1.12,0,0,1-1.121,1.117Zm-8.153,0a1.12,1.12,0,0,1-1.121-1.117,1.123,1.123,0,0,1,1.121-1.121h3.029a1.12,1.12,0,0,1,1.117,1.121,1.117,1.117,0,0,1-1.117,1.117Zm4.472-3.682v-3.028a1.116,1.116,0,0,1,1.117-1.117,1.117,1.117,0,0,1,1.121,1.117v3.028a1.123,1.123,0,0,1-1.121,1.121A1.12,1.12,0,0,1-382.464-15667.6Z" transform="translate(438.999 15672)" fill="#1784c1"/>
</svg>
