<svg xmlns="http://www.w3.org/2000/svg" width="43.232" height="49.104" viewBox="0 0 43.232 49.104">
  <path id="Path_2413" data-name="Path 2413" d="M-19.857-40.7A32.113,32.113,0,0,1-30.624-42.4a19.869,19.869,0,0,1-7.94-4.99l9.208-9.659A16.131,16.131,0,0,0-25.368-53.7a8.213,8.213,0,0,0,4.06,1.095,5.541,5.541,0,0,0,4.1-1.417A5.683,5.683,0,0,0-15.8-58.211V-75.338H-33.053V-86.8H1.1v27.688Q1.1-49.9-4.232-45.3T-19.857-40.7Z" transform="translate(40.634 88.3)" fill="none" stroke="#213348" stroke-width="3"/>
</svg>
