<svg xmlns="http://www.w3.org/2000/svg" width="67.349" height="67.349" viewBox="0 0 67.349 67.349">
  <path id="target" d="M34.833,2.317A32.475,32.475,0,0,0,19.9,5.953L14.53.578a1.976,1.976,0,0,0-3.248.707L8.568,8.568,1.286,11.281A1.976,1.976,0,0,0,.579,14.53L5.953,19.9A32.512,32.512,0,1,0,34.833,2.317Zm0,43.217A10.7,10.7,0,1,0,28.8,26l-4.968-4.968a17.677,17.677,0,1,1-2.794,2.794L26,28.8a10.695,10.695,0,0,0,8.83,16.738Zm1.4-12.1-4.562-4.562a6.756,6.756,0,1,1-2.794,2.794l4.562,4.562a1.976,1.976,0,0,0,2.794-2.794ZM13.91,5.547,20.559,12.2,19.7,16.91,12.4,9.6ZM5.547,13.91,9.6,12.4,16.91,19.7l-4.715.855ZM34.833,63.4A28.555,28.555,0,0,1,8.906,22.857l1.227,1.227a1.976,1.976,0,0,0,1.749.547l4.354-.789a21.625,21.625,0,1,0,7.606-7.606l.789-4.354a1.976,1.976,0,0,0-.547-1.749L22.858,8.906A28.562,28.562,0,1,1,34.833,63.4Z" transform="translate(0 0)" fill="#1784c1"/>
</svg>
