<svg xmlns="http://www.w3.org/2000/svg" width="59.206" height="72.174" viewBox="0 0 59.206 72.174">
  <path id="Union_6" data-name="Union 6" d="M-423.494-15599.826a1.407,1.407,0,0,1-1.408-1.408v-8.461a4.231,4.231,0,0,1,4.228-4.228h1.408a5.6,5.6,0,0,1,1.652-3.984,5.605,5.605,0,0,1,2.58-1.475v-7.769a4.087,4.087,0,0,0-1.762-3.406,31.045,31.045,0,0,1-10.95-12.943c-6.962-1.876-11.253-8.618-11.253-17.786a4.231,4.231,0,0,1,4.228-4.228h4.228v-2.258a4.232,4.232,0,0,1,4.228-4.229h33.833a4.232,4.232,0,0,1,4.228,4.229v2.258h4.228a4.235,4.235,0,0,1,4.232,4.228c0,9.168-4.291,15.91-11.253,17.786a31.045,31.045,0,0,1-10.95,12.943,4.091,4.091,0,0,0-1.762,3.414v7.761a5.647,5.647,0,0,1,4.228,5.459h1.408a4.235,4.235,0,0,1,4.232,4.228v8.461a1.41,1.41,0,0,1-1.412,1.408Zm1.412-9.869v7.049h25.373v-7.049a1.412,1.412,0,0,0-1.412-1.407h-22.553A1.409,1.409,0,0,0-422.082-15609.7Zm6.462-6.218a2.8,2.8,0,0,0-.826,1.99h14.1a2.823,2.823,0,0,0-2.82-2.82,1.406,1.406,0,0,1-1.408-1.408v-8.991a6.9,6.9,0,0,1,3.009-5.75,28.267,28.267,0,0,0,10.218-12.366,28.159,28.159,0,0,0,2.277-11.139v-11.374a1.409,1.409,0,0,0-1.408-1.408h-33.833a1.411,1.411,0,0,0-1.408,1.408v11.374a28.149,28.149,0,0,0,2.281,11.139,28.267,28.267,0,0,0,10.218,12.366,6.888,6.888,0,0,1,3,5.742v9a1.413,1.413,0,0,1-1.408,1.416,1.037,1.037,0,0,1-.11,0A2.8,2.8,0,0,0-415.62-15615.913Zm27.367-40.484A31.023,31.023,0,0,1-389.7-15647c4.488-2.222,7.088-7.354,7.088-14.281a1.414,1.414,0,0,0-1.412-1.412h-4.228Zm-47.925-4.889c0,6.927,2.6,12.06,7.084,14.281a30.986,30.986,0,0,1-1.447-9.393v-6.3h-4.228A1.41,1.41,0,0,0-436.179-15661.286Zm48.492,57.231c.114-.087.385-.079.787,0Zm-17.483-2.82a1.413,1.413,0,0,1,1.412-1.408,1.41,1.41,0,0,1,1.408,1.408,1.41,1.41,0,0,1-1.408,1.412A1.413,1.413,0,0,1-405.17-15606.875Zm-9.864,1.412a1.413,1.413,0,0,1-1.412-1.412,1.41,1.41,0,0,1,1.412-1.408h5.636a1.41,1.41,0,0,1,1.412,1.408,1.413,1.413,0,0,1-1.412,1.412Zm11.029-36.6-5.443-2.863-5.44,2.863a1.42,1.42,0,0,1-1.487-.11,1.409,1.409,0,0,1-.559-1.377l1.038-6.061-4.4-4.291a1.408,1.408,0,0,1-.358-1.443,1.4,1.4,0,0,1,1.137-.96l6.085-.885,2.722-5.515a1.407,1.407,0,0,1,1.263-.782,1.413,1.413,0,0,1,1.266.782l2.718,5.515,6.085.885a1.413,1.413,0,0,1,1.141.96,1.408,1.408,0,0,1-.358,1.443l-4.405,4.291,1.042,6.061a1.4,1.4,0,0,1-.562,1.377,1.4,1.4,0,0,1-.829.27A1.422,1.422,0,0,1-404.006-15642.061Zm-4.787-5.7,3.571,1.876-.684-3.973a1.421,1.421,0,0,1,.405-1.251l2.887-2.812-3.988-.578a1.421,1.421,0,0,1-1.062-.775l-1.786-3.614-1.786,3.614a1.421,1.421,0,0,1-1.058.775l-3.992.578,2.887,2.812a1.419,1.419,0,0,1,.409,1.247l-.684,3.977,3.567-1.876a1.416,1.416,0,0,1,.658-.162A1.4,1.4,0,0,1-408.792-15647.764Z" transform="translate(438.999 15672)" fill="#1784c1"/>
</svg>
