<svg xmlns="http://www.w3.org/2000/svg" width="82.35" height="69.251" viewBox="0 0 82.35 69.251">
  <path id="Path_2479" data-name="Path 2479" d="M24.6-124.978q7.83,0,11.941,4.176a14.782,14.782,0,0,1,4.111,10.832,15.453,15.453,0,0,1-4.959,11.811,17.288,17.288,0,0,1-12.268,4.633,17.457,17.457,0,0,1-13.7-6.264Q4.24-106.054,4.24-119.105a49.994,49.994,0,0,1,3.915-20.359,41.228,41.228,0,0,1,10.571-14.682A38.386,38.386,0,0,1,33.735-162.3a6.28,6.28,0,0,1,4.633-.065,3.769,3.769,0,0,1,2.153,2.806,3.441,3.441,0,0,1-.522,3.2,9.364,9.364,0,0,1-4.046,2.545,30.9,30.9,0,0,0-10.636,6.2,29.1,29.1,0,0,0-6.656,8.613,20.426,20.426,0,0,0-2.284,9.07,5.429,5.429,0,0,0,1.109,3.719q1.109,1.24,3.85,1.24Zm45.939,0q7.7,0,11.876,4.111t4.176,10.9a15.357,15.357,0,0,1-5.025,11.811,17.35,17.35,0,0,1-12.2,4.633A17.6,17.6,0,0,1,55.529-99.79q-5.481-6.264-5.481-19.315a49.994,49.994,0,0,1,3.915-20.359A40.853,40.853,0,0,1,64.6-154.146,39.061,39.061,0,0,1,79.543-162.3a6.615,6.615,0,0,1,4.764-.065,3.769,3.769,0,0,1,2.153,2.806,3.74,3.74,0,0,1-.653,3.2,9.333,9.333,0,0,1-3.915,2.545,30.71,30.71,0,0,0-10.767,6.2,28.144,28.144,0,0,0-6.591,8.613,20.909,20.909,0,0,0-2.219,9.07,5.429,5.429,0,0,0,1.109,3.719,4.789,4.789,0,0,0,3.719,1.24Z" transform="translate(-4.24 162.777)" fill="#dadada"/>
</svg>
