<svg xmlns="http://www.w3.org/2000/svg" width="388.788" height="227.472" viewBox="0 0 388.788 227.472">
  <path id="Union_1" data-name="Union 1" d="M-1846.162,222.994a4.147,4.147,0,0,0,2.373-.6,2.066,2.066,0,0,0,.878-1.831,1.733,1.733,0,0,0-.938-1.684,8.882,8.882,0,0,0-3.222-.63l.854-3.913a18.994,18.994,0,0,1-8.047-3.148q-4.937-3.428-4.79-10.225l.058-.175h8.291q0,3.779,2.227,5.566a9.38,9.38,0,0,0,6.035,1.786,8.231,8.231,0,0,0,5.229-1.436,4.655,4.655,0,0,0,1.8-3.838,4.989,4.989,0,0,0-1.714-3.956,17.234,17.234,0,0,0-6.02-2.812q-7.383-2.226-11.206-5.243a9.923,9.923,0,0,1-3.824-8.233,10.353,10.353,0,0,1,4.307-8.569,17.454,17.454,0,0,1,10.986-3.326q7.089,0,11.411,3.575a11.177,11.177,0,0,1,4.174,9.374l-.058.176h-8.291a6.214,6.214,0,0,0-1.933-4.908,7.9,7.9,0,0,0-5.421-1.714,7.161,7.161,0,0,0-4.892,1.524,4.96,4.96,0,0,0-1.728,3.9,4.255,4.255,0,0,0,1.875,3.56,25.105,25.105,0,0,0,6.475,2.945q7.031,1.991,10.723,5.2a10.653,10.653,0,0,1,3.692,8.452,10.175,10.175,0,0,1-4.278,8.643,17,17,0,0,1-8.692,3.045l-.243,1.261a5.862,5.862,0,0,1,3.135,1.524,4.671,4.671,0,0,1,1.259,3.544,5.826,5.826,0,0,1-2.68,5.01q-2.681,1.875-7.6,1.875Zm-48.384-12.451q-4.732-4.073-4.731-11.28v-27.92h8.584v27.92q0,4.277,2.285,6.533a8.413,8.413,0,0,0,6.181,2.256,8.6,8.6,0,0,0,6.269-2.256q2.315-2.256,2.315-6.533v-27.92h8.584v27.92q0,7.208-4.775,11.28t-12.393,4.072Q-1889.814,214.615-1894.546,210.543ZM-1606.338,214a4.736,4.736,0,0,1-1.508-3.106,27.235,27.235,0,0,1-.338-4.189v-3.018a6.779,6.779,0,0,0-1.742-4.965,6.613,6.613,0,0,0-4.936-1.773h-6.8V214h-8.555V171.344h14.766q7.3,0,11.412,3.326a11.253,11.253,0,0,1,4.116,9.272,9.352,9.352,0,0,1-1.743,5.669,12.138,12.138,0,0,1-5.083,3.853,9.174,9.174,0,0,1,5.435,3.721,11.8,11.8,0,0,1,1.655,6.445v3.135a15.509,15.509,0,0,0,.483,3.736,5.135,5.135,0,0,0,1.655,2.885V214Zm-15.323-23.643h6.065q3.6,0,5.361-1.523a5.648,5.648,0,0,0,1.758-4.512,6.207,6.207,0,0,0-1.773-4.658,7.153,7.153,0,0,0-5.2-1.729h-6.211ZM-1663.584,214V171.344h27.305v6.592h-18.75v10.723h15.82v6.592h-15.82v12.188h18.808V214Zm-33.34,0V171.344h8.555v36.094h19.1V214Zm-17.022,0V171.344h8.555V214Zm-14.941,0a4.741,4.741,0,0,1-1.509-3.106,27.338,27.338,0,0,1-.337-4.189v-3.018a6.78,6.78,0,0,0-1.743-4.965,6.611,6.611,0,0,0-4.937-1.773h-6.8V214h-8.555V171.344H-1738q7.3,0,11.411,3.326a11.253,11.253,0,0,1,4.117,9.272,9.353,9.353,0,0,1-1.743,5.669,12.137,12.137,0,0,1-5.083,3.853,9.172,9.172,0,0,1,5.434,3.721,11.787,11.787,0,0,1,1.656,6.445v3.135a15.509,15.509,0,0,0,.483,3.736,5.135,5.135,0,0,0,1.655,2.885V214Zm-15.322-23.643h6.064q3.6,0,5.361-1.523a5.648,5.648,0,0,0,1.759-4.512,6.206,6.206,0,0,0-1.773-4.658,7.155,7.155,0,0,0-5.2-1.729h-6.211ZM-1786.133,214V171.344h27.305v6.592h-18.751v10.723h15.82v6.592h-15.82v12.188h18.809V214Zm-25.43,0V177.935h-12.012v-6.592h32.755v6.592h-12.188V214Zm-103.711,0V184.879l-.176-.03L-1926,214h-5.8l-10.547-29.209-.176.03V214h-8.555V171.344h11.22l10.84,31.435h.176l10.957-31.435h11.163V214Zm-57.941-3.008-.07-.023v-3.316a2.684,2.684,0,0,0,2.227-.891,3.75,3.75,0,0,0,.715-2.414,3.291,3.291,0,0,0-.574-2.092,1.862,1.862,0,0,0-1.535-.721,1.993,1.993,0,0,0-1.581.686,6.86,6.86,0,0,0-1.125,2.408,13.7,13.7,0,0,1-2.1,4.483,3.969,3.969,0,0,1-3.293,1.529,4.143,4.143,0,0,1-3.428-1.723,6.983,6.983,0,0,1-1.329-4.395,6.931,6.931,0,0,1,1.429-4.564,4.473,4.473,0,0,1,3.75-1.67l.07.023v3.316a2.488,2.488,0,0,0-1.963.773,3.159,3.159,0,0,0-.686,2.168,2.866,2.866,0,0,0,.609,1.958,1.986,1.986,0,0,0,1.559.691,1.7,1.7,0,0,0,1.424-.75,10.044,10.044,0,0,0,1.178-2.59,11.138,11.138,0,0,1,2.08-4.289,4.262,4.262,0,0,1,3.38-1.476,4.071,4.071,0,0,1,3.458,1.711,7.431,7.431,0,0,1,1.265,4.523,8.081,8.081,0,0,1-1.372,4.729,4.48,4.48,0,0,1-3.935,1.918Zm-11.848-14.191V183.7h2.637v4.875H-1968V192h-14.425V196.8Zm0-18.094v-3.5l17.062-5.73v3.574l-3.679,1.16v5.531l3.679,1.148v3.575Zm4.687-1.781V177l6.012,1.9v-3.856Zm-4.687-9.094V164.41l11.5-6.879-.012-.07h-11.484V154.04H-1968v3.422l-11.507,6.879.012.07h11.5v3.422Zm270.649-.736v-7.061h9.58V167.1Zm-164.326,0v-5.977h7.793V167.1Zm-14.648,0v-5.977h7.793V167.1Zm-91.674-16.2v-5.953a7.041,7.041,0,0,1,2-5.156,6.887,6.887,0,0,1,5.127-2.027h2.824a6.861,6.861,0,0,1,5.126,2.027,7.061,7.061,0,0,1,1.986,5.156V150.9Zm3.891-8.671a3.344,3.344,0,0,0-1.254,2.718v2.532h11.8v-2.532a3.339,3.339,0,0,0-1.26-2.718,4.93,4.93,0,0,0-3.228-1.031h-2.848A4.889,4.889,0,0,0-1981.172,142.227Zm194.908-1.684q-4.732-4.073-4.732-11.28v-27.92h8.584v27.92q0,4.278,2.285,6.533a8.416,8.416,0,0,0,6.182,2.256,8.6,8.6,0,0,0,6.269-2.256q2.314-2.256,2.314-6.533v-27.92h8.584v27.92q0,7.208-4.775,11.28t-12.392,4.072Q-1781.533,144.616-1786.264,140.543Zm-108.282,0q-4.732-4.073-4.731-11.28v-27.92h8.584v27.92q0,4.278,2.285,6.533a8.413,8.413,0,0,0,6.181,2.256,8.6,8.6,0,0,0,6.269-2.256q2.315-2.256,2.315-6.533v-27.92h8.584v27.92q0,7.208-4.775,11.28t-12.393,4.072Q-1889.814,144.616-1894.546,140.543Zm71.323,3.457V101.344h8.555v36.094h19.1V144Zm-25.429,0V107.935h-12.011v-6.592h32.754v6.592H-1840.1V144Zm-66.622,0V114.879l-.176-.029L-1926,144h-5.8l-10.547-29.209-.176.029V144h-8.555V101.344h11.22l10.84,31.436h.176l10.957-31.436h11.163V144Zm-69.789-13.129v-3.5l17.062-5.73v3.574l-3.679,1.16V131.9l3.679,1.148v3.575Zm4.687-1.781v.07l6.012,1.9V127.2Zm-4.687-9.094v-5.907a7.073,7.073,0,0,1,1.33-4.564,4.5,4.5,0,0,1,3.709-1.647,3.747,3.747,0,0,1,2.268.7,4.865,4.865,0,0,1,1.541,2.033,3.674,3.674,0,0,1,1.488-2.174,4.717,4.717,0,0,1,2.578-.662h1.254a6.163,6.163,0,0,0,1.494-.193,2.053,2.053,0,0,0,1.155-.661h.246v3.527a1.893,1.893,0,0,1-1.242.6,11,11,0,0,1-1.676.134h-1.207a2.714,2.714,0,0,0-1.986.7,2.646,2.646,0,0,0-.709,1.975v2.719h6.82V120Zm3.328-7.987a2.864,2.864,0,0,0-.691,2.08v2.485h4.969v-2.425a3.205,3.205,0,0,0-.61-2.145,2.256,2.256,0,0,0-1.8-.7A2.482,2.482,0,0,0-1981.734,112.01Zm-3.328-5.513v-13.1h2.637v4.874H-1968v3.422h-14.425V106.5Zm0-14.977V88.1h14.438v-7.64H-1968V91.519Zm0-17.953v-3.5l17.062-5.73v3.574l-3.679,1.16V74.6l3.679,1.148v3.575Zm4.687-1.781v.07l6.012,1.9V69.9Zm145.288-1.447q-3.956-4.277-3.956-11.777V46.813q0-7.471,3.94-11.777a13.513,13.513,0,0,1,10.474-4.307,13.57,13.57,0,0,1,10.473,4.307q3.97,4.306,3.97,11.777V58.56q0,7.5-3.94,11.777a13.523,13.523,0,0,1-10.445,4.278A13.637,13.637,0,0,1-1835.087,70.338Zm6.108-30.761a11.2,11.2,0,0,0-1.538,6.357V59.381a11.231,11.231,0,0,0,1.552,6.431,5.034,5.034,0,0,0,4.395,2.241,4.943,4.943,0,0,0,4.321-2.241,11.316,11.316,0,0,0,1.538-6.431V45.933a11.038,11.038,0,0,0-1.567-6.357,5.008,5.008,0,0,0-4.351-2.256A4.96,4.96,0,0,0-1828.979,39.577Zm-40.532,30.761q-3.955-4.277-3.955-11.777V46.813q0-7.471,3.941-11.777a13.51,13.51,0,0,1,10.473-4.307,13.568,13.568,0,0,1,10.473,4.307q3.97,4.306,3.97,11.777V58.56q0,7.5-3.94,11.777a13.521,13.521,0,0,1-10.444,4.278A13.637,13.637,0,0,1-1869.512,70.338Zm6.108-30.761a11.2,11.2,0,0,0-1.538,6.357V59.381a11.231,11.231,0,0,0,1.553,6.431,5.034,5.034,0,0,0,4.395,2.241,4.942,4.942,0,0,0,4.321-2.241,11.309,11.309,0,0,0,1.538-6.431V45.933a11.038,11.038,0,0,0-1.567-6.357,5.007,5.007,0,0,0-4.351-2.256A4.961,4.961,0,0,0-1863.4,39.577Zm-65.948,32.5a8.574,8.574,0,0,1-2.475-6.284V63.541a8.615,8.615,0,0,1,2.461-6.269,9.1,9.1,0,0,1,6.826-2.519,9.119,9.119,0,0,1,6.84,2.5,8.628,8.628,0,0,1,2.447,6.284V65.8a8.646,8.646,0,0,1-2.432,6.3,9.062,9.062,0,0,1-6.8,2.49A9.221,9.221,0,0,1-1929.351,72.081Zm4.131-11.4a4.511,4.511,0,0,0-.922,2.857V65.8a4.253,4.253,0,0,0,1.011,2.856,3.313,3.313,0,0,0,2.651,1.187,3.18,3.18,0,0,0,2.724-1.1,4.806,4.806,0,0,0,.82-2.944V63.541a4.469,4.469,0,0,0-.937-2.857,3.2,3.2,0,0,0-2.666-1.186A3.191,3.191,0,0,0-1925.22,60.684ZM-1895.879,74V38.785h-8.818V32.252l17.344-1.524V74Zm-49.775-5.39,20.83-33.341,4.161,2.2-20.831,33.34Zm-39.408-5.918V56.785a7.076,7.076,0,0,1,1.33-4.565,4.5,4.5,0,0,1,3.709-1.646,3.746,3.746,0,0,1,2.268.7,4.865,4.865,0,0,1,1.541,2.033,3.677,3.677,0,0,1,1.488-2.174,4.725,4.725,0,0,1,2.578-.662h1.254a6.205,6.205,0,0,0,1.494-.193,2.059,2.059,0,0,0,1.155-.662h.246v3.527a1.893,1.893,0,0,1-1.242.6,10.888,10.888,0,0,1-1.676.134h-1.207a2.714,2.714,0,0,0-1.986.7,2.646,2.646,0,0,0-.709,1.975V59.27h6.82v3.422Zm3.328-7.987a2.866,2.866,0,0,0-.691,2.081V59.27h4.969V56.844a3.205,3.205,0,0,0-.61-2.145,2.256,2.256,0,0,0-1.8-.7A2.482,2.482,0,0,0-1981.734,54.7Zm31.979-6.632a8.556,8.556,0,0,1-2.462-6.27V39.547a8.683,8.683,0,0,1,2.446-6.3,9.055,9.055,0,0,1,6.812-2.519,9.114,9.114,0,0,1,6.855,2.5,8.7,8.7,0,0,1,2.432,6.313V41.8a8.612,8.612,0,0,1-2.432,6.27,9.066,9.066,0,0,1-6.8,2.49A9.206,9.206,0,0,1-1949.755,48.073Zm4.145-11.411a4.553,4.553,0,0,0-.923,2.885V41.8a4.393,4.393,0,0,0,.938,2.857,3.266,3.266,0,0,0,2.7,1.157,3.156,3.156,0,0,0,2.622-1.157,4.435,4.435,0,0,0,.923-2.857V39.547a4.51,4.51,0,0,0-.938-2.885,3.2,3.2,0,0,0-2.666-1.187A3.158,3.158,0,0,0-1945.61,36.661Zm-39.452,10.5V43.742H-1968v3.423Zm0-6.809V35.867l12.574-4.335v-.07l-12.574-4.383V22.613H-1968v3.422h-11.648l-.012.07L-1968,30.325v2.32l-11.683,4.218.012.07H-1968v3.422Zm0-21.117V15.817H-1968v3.422Zm15.281-6.141L-1982.426,5.5v7.583h-2.637V1.437h1.711l12.727,7.629V1.238H-1968V13.1Z" transform="translate(1985.808 -0.738)" fill="#222638" stroke="rgba(0,0,0,0)" stroke-miterlimit="10" stroke-width="1"/>
</svg>
