<svg xmlns="http://www.w3.org/2000/svg" width="60.811" height="60.813" viewBox="0 0 60.811 60.813">
  <path id="Union_2" data-name="Union 2" d="M-433.931-15611.187a5.074,5.074,0,0,1-5.07-5.066v-39.528a1.015,1.015,0,0,1,1.015-1.015,1.011,1.011,0,0,1,1.011,1.015v39.528a3.046,3.046,0,0,0,3.044,3.041h24.323v-2.384a21.87,21.87,0,0,0-8.106-1.672,65.155,65.155,0,0,0-15.941,1.986.957.957,0,0,1-.275.039,1,1,0,0,1-.614-.2,1.014,1.014,0,0,1-.4-.807v-44.6a1.007,1.007,0,0,1,.735-.972,65.58,65.58,0,0,1,16.5-2.069,23.437,23.437,0,0,1,9.573,2.136,1.013,1.013,0,0,1,.559.905v38.78a113.653,113.653,0,0,1,17.231-8.086v-39.348a108.3,108.3,0,0,0-14.667,7.485,1.011,1.011,0,0,1-1.4-.323,1.019,1.019,0,0,1,.323-1.4,107.732,107.732,0,0,1,16.4-8.2,1,1,0,0,1,.932.118,1.008,1.008,0,0,1,.441.83v41.558a1.01,1.01,0,0,1-.7.96c-8.913,2.969-18.954,8.967-19.056,9.03a1.006,1.006,0,0,1-1.019.012,1.012,1.012,0,0,1-.515-.881v-39.887a22.014,22.014,0,0,0-8.106-1.667,66.693,66.693,0,0,0-15.206,1.8v42.506a68.284,68.284,0,0,1,15.206-1.734,23.759,23.759,0,0,1,9.16,1.939,31.835,31.835,0,0,1,10.1-1.939,57.272,57.272,0,0,1,14.187,1.691v-42.424c-.334-.066-.767-.153-1.286-.247a1.012,1.012,0,0,1-.81-1.181,1.011,1.011,0,0,1,1.18-.813c1.357.252,2.151.429,2.151.429a1.009,1.009,0,0,1,.794.987v44.594a1.025,1.025,0,0,1-.421.826,1.024,1.024,0,0,1-.913.138,52.335,52.335,0,0,0-14.883-1.975,29.84,29.84,0,0,0-9.125,1.723v2.333h24.327a3.046,3.046,0,0,0,3.04-3.045v-39.524a1.012,1.012,0,0,1,1.015-1.015,1.011,1.011,0,0,1,1.011,1.015v39.528a5.073,5.073,0,0,1-5.066,5.066Zm5.1-15.953a1.015,1.015,0,0,1,.716-1.243c.3-.078,7.41-1.95,13.668-.483a1.017,1.017,0,0,1,.759,1.219,1.02,1.02,0,0,1-1.219.756c-5.766-1.354-12.614.448-12.684.468a1,1,0,0,1-.264.035A1.014,1.014,0,0,1-428.829-15627.141Zm24.4-3.858a1.018,1.018,0,0,1,.444-1.365,87.513,87.513,0,0,1,9.278-4.114,1.01,1.01,0,0,1,1.27.661,1.012,1.012,0,0,1-.661,1.271,86.374,86.374,0,0,0-8.968,3.992,1,1,0,0,1-.46.11A1.025,1.025,0,0,1-404.432-15631Zm-24.4-2.223a1.015,1.015,0,0,1,.716-1.242c.3-.083,7.41-1.951,13.668-.484a1.02,1.02,0,0,1,.759,1.22,1.013,1.013,0,0,1-1.219.755c-5.766-1.353-12.614.448-12.684.468a1,1,0,0,1-.264.036A1.015,1.015,0,0,1-428.829-15633.222Zm24.4-3.858a1.012,1.012,0,0,1,.444-1.36,86.484,86.484,0,0,1,9.278-4.118,1.01,1.01,0,0,1,1.27.661,1.011,1.011,0,0,1-.661,1.27,87.25,87.25,0,0,0-8.968,3.992,1,1,0,0,1-.46.11A1.023,1.023,0,0,1-404.432-15637.08Zm-24.4-2.222a1.015,1.015,0,0,1,.716-1.243c.3-.083,7.41-1.951,13.668-.483a1.017,1.017,0,0,1,.759,1.219,1.016,1.016,0,0,1-1.219.755c-5.766-1.353-12.614.449-12.684.469a1,1,0,0,1-.264.035A1.014,1.014,0,0,1-428.829-15639.3Zm24.4-3.858a1.018,1.018,0,0,1,.444-1.365,88.133,88.133,0,0,1,9.278-4.118,1.016,1.016,0,0,1,1.27.665,1.012,1.012,0,0,1-.661,1.271,86.157,86.157,0,0,0-8.968,3.992,1.01,1.01,0,0,1-.46.11A1.025,1.025,0,0,1-404.432-15643.16Zm-24.4-2.227a1.013,1.013,0,0,1,.716-1.239c.3-.078,7.41-1.95,13.668-.483a1.018,1.018,0,0,1,.759,1.22,1.02,1.02,0,0,1-1.219.755c-5.766-1.354-12.614.448-12.684.468a.993.993,0,0,1-.264.031A1.01,1.01,0,0,1-428.829-15645.387Zm24.4-3.854a1.018,1.018,0,0,1,.444-1.365,88.4,88.4,0,0,1,9.278-4.117,1.015,1.015,0,0,1,1.27.664,1.012,1.012,0,0,1-.661,1.271,87.493,87.493,0,0,0-8.968,3.988.956.956,0,0,1-.46.114A1.023,1.023,0,0,1-404.432-15649.241Zm-24.4-2.227a1.015,1.015,0,0,1,.716-1.242c.3-.079,7.41-1.951,13.668-.48a1.014,1.014,0,0,1,.759,1.216,1.013,1.013,0,0,1-1.219.755c-5.766-1.353-12.614.448-12.684.468a.959.959,0,0,1-.264.036A1.014,1.014,0,0,1-428.829-15651.468Zm24.4-3.854a1.017,1.017,0,0,1,.444-1.364,87.3,87.3,0,0,1,9.278-4.118,1.014,1.014,0,0,1,1.27.661,1.015,1.015,0,0,1-.661,1.274,86.177,86.177,0,0,0-8.968,3.988,1.009,1.009,0,0,1-.46.109A1.019,1.019,0,0,1-404.432-15655.322Z" transform="translate(439 15672.001)" fill="#1784c1"/>
</svg>
