<svg xmlns="http://www.w3.org/2000/svg" width="53.085" height="50.447" viewBox="0 0 53.085 50.447">
  <path id="package" d="M54.692,35.482a3.535,3.535,0,0,0-1.942-2.04V8.672A2.68,2.68,0,0,0,50.078,6h-28.5A2.68,2.68,0,0,0,18.9,8.672V33.638a18.048,18.048,0,0,0-2.886,1.648l-2.8,1.96L12.2,35.785a.9.9,0,0,0-1.238-.223L2.2,41.69a.906.906,0,0,0-.223,1.247l9.2,13.129a.891.891,0,0,0,1.238.223l8.756-6.128a.908.908,0,0,0,.223-1.247l-.508-.721a7.927,7.927,0,0,1,5.879-1.256l1.585.267a11.579,11.579,0,0,0,5.977-.517l18.233-6.636a3.563,3.563,0,0,0,2.129-4.569ZM40.281,7.781h9.8a.891.891,0,0,1,.891.891v2.672H40.281Zm-7.126,0H38.5v7.651l-2.04-2.049a.9.9,0,0,0-1.265,0l-2.04,2.049Zm-12.47.891a.891.891,0,0,1,.891-.891h9.8v3.563H20.685Zm0,4.453H31.374v4.453a.879.879,0,0,0,.552.819.891.891,0,0,0,.971-.187l2.93-2.939,2.93,2.939a.9.9,0,0,0,.632.258.746.746,0,0,0,.338-.071.879.879,0,0,0,.552-.819V13.126H50.969v20.05a3.426,3.426,0,0,0-.837.178L46.979,34.5H40.717a3.45,3.45,0,0,0-1.648-.775l-8.951-1.577a18.7,18.7,0,0,0-8.675.517l-.16.053c-.2.053-.4.134-.6.2ZM12.126,54.32,3.958,42.643l7.295-5.113,8.168,11.677ZM53.107,37.014a1.781,1.781,0,0,1-1.149,1.363L33.725,45.012a9.787,9.787,0,0,1-5.059.436l-1.594-.267a9.693,9.693,0,0,0-7.206,1.55L14.246,38.7l2.8-1.951a16.567,16.567,0,0,1,4.73-2.316l.16-.045a17.141,17.141,0,0,1,7.883-.49l8.943,1.577a1.824,1.824,0,0,1,1.158.739,1.792,1.792,0,0,1,.294.766,1.575,1.575,0,0,1-.045.748,1.789,1.789,0,0,1-2.04,1.265L28.5,37.29l-.3,1.746,9.62,1.7a3.047,3.047,0,0,0,.632.062,3.578,3.578,0,0,0,3.42-2.538l8.871-3.233a1.781,1.781,0,0,1,2.28,1.069,1.692,1.692,0,0,1,.089.917Z" transform="translate(-1.824 -6)" fill="#213348"/>
</svg>
